%TF.GenerationSoftware,KiCad,Pcbnew,(6.0.8-1)-1*%
%TF.CreationDate,2023-07-28T17:56:29-05:00*%
%TF.ProjectId,FSR Adaptor,46535220-4164-4617-9074-6f722e6b6963,rev?*%
%TF.SameCoordinates,Original*%
%TF.FileFunction,Legend,Top*%
%TF.FilePolarity,Positive*%
%FSLAX46Y46*%
G04 Gerber Fmt 4.6, Leading zero omitted, Abs format (unit mm)*
G04 Created by KiCad (PCBNEW (6.0.8-1)-1) date 2023-07-28 17:56:29*
%MOMM*%
%LPD*%
G01*
G04 APERTURE LIST*
%ADD10C,0.160000*%
%ADD11C,0.120000*%
%ADD12C,0.200000*%
%ADD13C,0.300000*%
G04 APERTURE END LIST*
D10*
X68298961Y-60428142D02*
X68346580Y-60285285D01*
X68346580Y-60047189D01*
X68298961Y-59951951D01*
X68251342Y-59904332D01*
X68156104Y-59856713D01*
X68060866Y-59856713D01*
X67965628Y-59904332D01*
X67918009Y-59951951D01*
X67870390Y-60047189D01*
X67822771Y-60237666D01*
X67775152Y-60332904D01*
X67727533Y-60380523D01*
X67632295Y-60428142D01*
X67537057Y-60428142D01*
X67441819Y-60380523D01*
X67394200Y-60332904D01*
X67346580Y-60237666D01*
X67346580Y-59999570D01*
X67394200Y-59856713D01*
X68298961Y-70638942D02*
X68346580Y-70496085D01*
X68346580Y-70257989D01*
X68298961Y-70162751D01*
X68251342Y-70115132D01*
X68156104Y-70067513D01*
X68060866Y-70067513D01*
X67965628Y-70115132D01*
X67918009Y-70162751D01*
X67870390Y-70257989D01*
X67822771Y-70448466D01*
X67775152Y-70543704D01*
X67727533Y-70591323D01*
X67632295Y-70638942D01*
X67537057Y-70638942D01*
X67441819Y-70591323D01*
X67394200Y-70543704D01*
X67346580Y-70448466D01*
X67346580Y-70210370D01*
X67394200Y-70067513D01*
X68845180Y-60150047D02*
X68845180Y-59578619D01*
X69845180Y-59864333D02*
X68845180Y-59864333D01*
X68845180Y-59054809D02*
X68845180Y-58864333D01*
X68892800Y-58769095D01*
X68988038Y-58673857D01*
X69178514Y-58626238D01*
X69511847Y-58626238D01*
X69702323Y-58673857D01*
X69797561Y-58769095D01*
X69845180Y-58864333D01*
X69845180Y-59054809D01*
X69797561Y-59150047D01*
X69702323Y-59245285D01*
X69511847Y-59292904D01*
X69178514Y-59292904D01*
X68988038Y-59245285D01*
X68892800Y-59150047D01*
X68845180Y-59054809D01*
X69559466Y-57483380D02*
X69559466Y-57007190D01*
X69845180Y-57578619D02*
X68845180Y-57245285D01*
X69845180Y-56911952D01*
X69845180Y-56578619D02*
X68845180Y-56578619D01*
X68845180Y-56340523D01*
X68892800Y-56197666D01*
X68988038Y-56102428D01*
X69083276Y-56054809D01*
X69273752Y-56007190D01*
X69416609Y-56007190D01*
X69607085Y-56054809D01*
X69702323Y-56102428D01*
X69797561Y-56197666D01*
X69845180Y-56340523D01*
X69845180Y-56578619D01*
X69749942Y-55007190D02*
X69797561Y-55054809D01*
X69845180Y-55197666D01*
X69845180Y-55292904D01*
X69797561Y-55435761D01*
X69702323Y-55531000D01*
X69607085Y-55578619D01*
X69416609Y-55626238D01*
X69273752Y-55626238D01*
X69083276Y-55578619D01*
X68988038Y-55531000D01*
X68892800Y-55435761D01*
X68845180Y-55292904D01*
X68845180Y-55197666D01*
X68892800Y-55054809D01*
X68940419Y-55007190D01*
X68845180Y-70194180D02*
X68845180Y-69622752D01*
X69845180Y-69908466D02*
X68845180Y-69908466D01*
X68845180Y-69098942D02*
X68845180Y-68908466D01*
X68892800Y-68813228D01*
X68988038Y-68717990D01*
X69178514Y-68670371D01*
X69511847Y-68670371D01*
X69702323Y-68717990D01*
X69797561Y-68813228D01*
X69845180Y-68908466D01*
X69845180Y-69098942D01*
X69797561Y-69194180D01*
X69702323Y-69289419D01*
X69511847Y-69337038D01*
X69178514Y-69337038D01*
X68988038Y-69289419D01*
X68892800Y-69194180D01*
X68845180Y-69098942D01*
X69845180Y-67479895D02*
X68845180Y-67479895D01*
X68845180Y-67241800D01*
X68892800Y-67098942D01*
X68988038Y-67003704D01*
X69083276Y-66956085D01*
X69273752Y-66908466D01*
X69416609Y-66908466D01*
X69607085Y-66956085D01*
X69702323Y-67003704D01*
X69797561Y-67098942D01*
X69845180Y-67241800D01*
X69845180Y-67479895D01*
X69845180Y-66479895D02*
X68845180Y-66479895D01*
X68845180Y-65813228D02*
X68845180Y-65622752D01*
X68892800Y-65527514D01*
X68988038Y-65432276D01*
X69178514Y-65384657D01*
X69511847Y-65384657D01*
X69702323Y-65432276D01*
X69797561Y-65527514D01*
X69845180Y-65622752D01*
X69845180Y-65813228D01*
X69797561Y-65908466D01*
X69702323Y-66003704D01*
X69511847Y-66051323D01*
X69178514Y-66051323D01*
X68988038Y-66003704D01*
X68892800Y-65908466D01*
X68845180Y-65813228D01*
X51373019Y-56408961D02*
X51373019Y-56980390D01*
X50373019Y-56694676D02*
X51373019Y-56694676D01*
X51373019Y-57504200D02*
X51373019Y-57694676D01*
X51325400Y-57789914D01*
X51230161Y-57885152D01*
X51039685Y-57932771D01*
X50706352Y-57932771D01*
X50515876Y-57885152D01*
X50420638Y-57789914D01*
X50373019Y-57694676D01*
X50373019Y-57504200D01*
X50420638Y-57408961D01*
X50515876Y-57313723D01*
X50706352Y-57266104D01*
X51039685Y-57266104D01*
X51230161Y-57313723D01*
X51325400Y-57408961D01*
X51373019Y-57504200D01*
X50896828Y-59456580D02*
X50896828Y-59123247D01*
X50373019Y-59123247D02*
X51373019Y-59123247D01*
X51373019Y-59599438D01*
X50420638Y-59932771D02*
X50373019Y-60075628D01*
X50373019Y-60313723D01*
X50420638Y-60408961D01*
X50468257Y-60456580D01*
X50563495Y-60504200D01*
X50658733Y-60504200D01*
X50753971Y-60456580D01*
X50801590Y-60408961D01*
X50849209Y-60313723D01*
X50896828Y-60123247D01*
X50944447Y-60028009D01*
X50992066Y-59980390D01*
X51087304Y-59932771D01*
X51182542Y-59932771D01*
X51277780Y-59980390D01*
X51325400Y-60028009D01*
X51373019Y-60123247D01*
X51373019Y-60361342D01*
X51325400Y-60504200D01*
X50373019Y-61504200D02*
X50849209Y-61170866D01*
X50373019Y-60932771D02*
X51373019Y-60932771D01*
X51373019Y-61313723D01*
X51325400Y-61408961D01*
X51277780Y-61456580D01*
X51182542Y-61504200D01*
X51039685Y-61504200D01*
X50944447Y-61456580D01*
X50896828Y-61408961D01*
X50849209Y-61313723D01*
X50849209Y-60932771D01*
X67965628Y-65654180D02*
X67965628Y-64892275D01*
X67965628Y-58034180D02*
X67965628Y-57272275D01*
X68346580Y-57653228D02*
X67584676Y-57653228D01*
X67965628Y-55443380D02*
X67965628Y-54681475D01*
X67965628Y-68244980D02*
X67965628Y-67483075D01*
X68346580Y-67864028D02*
X67584676Y-67864028D01*
%TO.C,J2*%
X67637066Y-71816980D02*
X67637066Y-72531266D01*
X67589447Y-72674123D01*
X67494209Y-72769361D01*
X67351352Y-72816980D01*
X67256114Y-72816980D01*
X68065638Y-71912219D02*
X68113257Y-71864600D01*
X68208495Y-71816980D01*
X68446590Y-71816980D01*
X68541828Y-71864600D01*
X68589447Y-71912219D01*
X68637066Y-72007457D01*
X68637066Y-72102695D01*
X68589447Y-72245552D01*
X68018019Y-72816980D01*
X68637066Y-72816980D01*
%TO.C,RV1*%
X51093761Y-69667380D02*
X50760428Y-69191190D01*
X50522333Y-69667380D02*
X50522333Y-68667380D01*
X50903285Y-68667380D01*
X50998523Y-68715000D01*
X51046142Y-68762619D01*
X51093761Y-68857857D01*
X51093761Y-69000714D01*
X51046142Y-69095952D01*
X50998523Y-69143571D01*
X50903285Y-69191190D01*
X50522333Y-69191190D01*
X51379476Y-68667380D02*
X51712809Y-69667380D01*
X52046142Y-68667380D01*
X52903285Y-69667380D02*
X52331857Y-69667380D01*
X52617571Y-69667380D02*
X52617571Y-68667380D01*
X52522333Y-68810238D01*
X52427095Y-68905476D01*
X52331857Y-68953095D01*
%TO.C,R1*%
X69260980Y-51144466D02*
X68784790Y-51477800D01*
X69260980Y-51715895D02*
X68260980Y-51715895D01*
X68260980Y-51334942D01*
X68308600Y-51239704D01*
X68356219Y-51192085D01*
X68451457Y-51144466D01*
X68594314Y-51144466D01*
X68689552Y-51192085D01*
X68737171Y-51239704D01*
X68784790Y-51334942D01*
X68784790Y-51715895D01*
X69260980Y-50192085D02*
X69260980Y-50763514D01*
X69260980Y-50477800D02*
X68260980Y-50477800D01*
X68403838Y-50573038D01*
X68499076Y-50668276D01*
X68546695Y-50763514D01*
%TO.C,RV2*%
X56199161Y-57729380D02*
X55865828Y-57253190D01*
X55627733Y-57729380D02*
X55627733Y-56729380D01*
X56008685Y-56729380D01*
X56103923Y-56777000D01*
X56151542Y-56824619D01*
X56199161Y-56919857D01*
X56199161Y-57062714D01*
X56151542Y-57157952D01*
X56103923Y-57205571D01*
X56008685Y-57253190D01*
X55627733Y-57253190D01*
X56484876Y-56729380D02*
X56818209Y-57729380D01*
X57151542Y-56729380D01*
X57437257Y-56824619D02*
X57484876Y-56777000D01*
X57580114Y-56729380D01*
X57818209Y-56729380D01*
X57913447Y-56777000D01*
X57961066Y-56824619D01*
X58008685Y-56919857D01*
X58008685Y-57015095D01*
X57961066Y-57157952D01*
X57389638Y-57729380D01*
X58008685Y-57729380D01*
%TO.C,C1*%
X60351942Y-70956466D02*
X60399561Y-71004085D01*
X60447180Y-71146942D01*
X60447180Y-71242180D01*
X60399561Y-71385038D01*
X60304323Y-71480276D01*
X60209085Y-71527895D01*
X60018609Y-71575514D01*
X59875752Y-71575514D01*
X59685276Y-71527895D01*
X59590038Y-71480276D01*
X59494800Y-71385038D01*
X59447180Y-71242180D01*
X59447180Y-71146942D01*
X59494800Y-71004085D01*
X59542419Y-70956466D01*
X60447180Y-70004085D02*
X60447180Y-70575514D01*
X60447180Y-70289800D02*
X59447180Y-70289800D01*
X59590038Y-70385038D01*
X59685276Y-70480276D01*
X59732895Y-70575514D01*
%TO.C,U1*%
X61010895Y-58481980D02*
X61010895Y-59291504D01*
X61058514Y-59386742D01*
X61106133Y-59434361D01*
X61201371Y-59481980D01*
X61391847Y-59481980D01*
X61487085Y-59434361D01*
X61534704Y-59386742D01*
X61582323Y-59291504D01*
X61582323Y-58481980D01*
X62582323Y-59481980D02*
X62010895Y-59481980D01*
X62296609Y-59481980D02*
X62296609Y-58481980D01*
X62201371Y-58624838D01*
X62106133Y-58720076D01*
X62010895Y-58767695D01*
%TO.C,J1*%
X53768666Y-54875180D02*
X53768666Y-55589466D01*
X53721047Y-55732323D01*
X53625809Y-55827561D01*
X53482952Y-55875180D01*
X53387714Y-55875180D01*
X54768666Y-55875180D02*
X54197238Y-55875180D01*
X54482952Y-55875180D02*
X54482952Y-54875180D01*
X54387714Y-55018038D01*
X54292476Y-55113276D01*
X54197238Y-55160895D01*
%TO.C,J3*%
X67662466Y-53376580D02*
X67662466Y-54090866D01*
X67614847Y-54233723D01*
X67519609Y-54328961D01*
X67376752Y-54376580D01*
X67281514Y-54376580D01*
X68043419Y-53376580D02*
X68662466Y-53376580D01*
X68329133Y-53757533D01*
X68471990Y-53757533D01*
X68567228Y-53805152D01*
X68614847Y-53852771D01*
X68662466Y-53948009D01*
X68662466Y-54186104D01*
X68614847Y-54281342D01*
X68567228Y-54328961D01*
X68471990Y-54376580D01*
X68186276Y-54376580D01*
X68091038Y-54328961D01*
X68043419Y-54281342D01*
%TO.C,D1*%
X54506904Y-74594980D02*
X54506904Y-73594980D01*
X54745000Y-73594980D01*
X54887857Y-73642600D01*
X54983095Y-73737838D01*
X55030714Y-73833076D01*
X55078333Y-74023552D01*
X55078333Y-74166409D01*
X55030714Y-74356885D01*
X54983095Y-74452123D01*
X54887857Y-74547361D01*
X54745000Y-74594980D01*
X54506904Y-74594980D01*
X56030714Y-74594980D02*
X55459285Y-74594980D01*
X55745000Y-74594980D02*
X55745000Y-73594980D01*
X55649761Y-73737838D01*
X55554523Y-73833076D01*
X55459285Y-73880695D01*
%TO.C,R2*%
X66355933Y-74645780D02*
X66022600Y-74169590D01*
X65784504Y-74645780D02*
X65784504Y-73645780D01*
X66165457Y-73645780D01*
X66260695Y-73693400D01*
X66308314Y-73741019D01*
X66355933Y-73836257D01*
X66355933Y-73979114D01*
X66308314Y-74074352D01*
X66260695Y-74121971D01*
X66165457Y-74169590D01*
X65784504Y-74169590D01*
X66736885Y-73741019D02*
X66784504Y-73693400D01*
X66879742Y-73645780D01*
X67117838Y-73645780D01*
X67213076Y-73693400D01*
X67260695Y-73741019D01*
X67308314Y-73836257D01*
X67308314Y-73931495D01*
X67260695Y-74074352D01*
X66689266Y-74645780D01*
X67308314Y-74645780D01*
%TO.C,C2*%
X62215733Y-62612542D02*
X62168114Y-62660161D01*
X62025257Y-62707780D01*
X61930019Y-62707780D01*
X61787161Y-62660161D01*
X61691923Y-62564923D01*
X61644304Y-62469685D01*
X61596685Y-62279209D01*
X61596685Y-62136352D01*
X61644304Y-61945876D01*
X61691923Y-61850638D01*
X61787161Y-61755400D01*
X61930019Y-61707780D01*
X62025257Y-61707780D01*
X62168114Y-61755400D01*
X62215733Y-61803019D01*
X62596685Y-61803019D02*
X62644304Y-61755400D01*
X62739542Y-61707780D01*
X62977638Y-61707780D01*
X63072876Y-61755400D01*
X63120495Y-61803019D01*
X63168114Y-61898257D01*
X63168114Y-61993495D01*
X63120495Y-62136352D01*
X62549066Y-62707780D01*
X63168114Y-62707780D01*
%TO.C,U2*%
X61371095Y-69454780D02*
X61371095Y-70264304D01*
X61418714Y-70359542D01*
X61466333Y-70407161D01*
X61561571Y-70454780D01*
X61752047Y-70454780D01*
X61847285Y-70407161D01*
X61894904Y-70359542D01*
X61942523Y-70264304D01*
X61942523Y-69454780D01*
X62371095Y-69550019D02*
X62418714Y-69502400D01*
X62513952Y-69454780D01*
X62752047Y-69454780D01*
X62847285Y-69502400D01*
X62894904Y-69550019D01*
X62942523Y-69645257D01*
X62942523Y-69740495D01*
X62894904Y-69883352D01*
X62323476Y-70454780D01*
X62942523Y-70454780D01*
D11*
%TO.C,J2*%
X66684200Y-63943228D02*
X64024200Y-63943228D01*
X65354200Y-71683228D02*
X64024200Y-71683228D01*
X66684200Y-69083228D02*
X64024200Y-69083228D01*
X64024200Y-69083228D02*
X64024200Y-63943228D01*
X64024200Y-71683228D02*
X64024200Y-70353228D01*
X66684200Y-69083228D02*
X66684200Y-63943228D01*
D12*
%TO.C,RV1*%
X52124800Y-63362200D02*
X52124800Y-63362200D01*
X56624800Y-68362200D02*
X52124800Y-68362200D01*
D13*
X50874800Y-67012200D02*
X50874800Y-67012200D01*
D12*
X56624800Y-68362200D02*
X56624800Y-67362200D01*
X56624800Y-64362200D02*
X56624800Y-63362200D01*
X56624800Y-68362200D02*
X56624800Y-68362200D01*
D13*
X50874800Y-67012200D02*
X50874800Y-67012200D01*
D12*
X56624800Y-64362200D02*
X56624800Y-64362200D01*
X56624800Y-63362200D02*
X52124800Y-63362200D01*
X52124800Y-68362200D02*
X56624800Y-68362200D01*
D13*
X50774800Y-67012200D02*
X50774800Y-67012200D01*
D12*
X52124800Y-63362200D02*
X56624800Y-63362200D01*
X56624800Y-63362200D02*
X56624800Y-63362200D01*
X56624800Y-63362200D02*
X56624800Y-63362200D01*
X56624800Y-63362200D02*
X56624800Y-64362200D01*
X56624800Y-68362200D02*
X56624800Y-68362200D01*
X56624800Y-67362200D02*
X56624800Y-67362200D01*
X56624800Y-67362200D02*
X56624800Y-68362200D01*
X52124800Y-68362200D02*
X52124800Y-68362200D01*
D13*
X50874800Y-67012200D02*
G75*
G03*
X50774800Y-67012200I-50000J0D01*
G01*
X50774800Y-67012200D02*
G75*
G03*
X50874800Y-67012200I50000J0D01*
G01*
X50874800Y-67012200D02*
G75*
G03*
X50774800Y-67012200I-50000J0D01*
G01*
D11*
%TO.C,R1*%
X66563864Y-53056200D02*
X65109736Y-53056200D01*
X66563864Y-51236200D02*
X65109736Y-51236200D01*
D12*
%TO.C,RV2*%
X61660600Y-51500400D02*
X57160600Y-51500400D01*
X61660600Y-55500400D02*
X61660600Y-55500400D01*
D13*
X55810600Y-55150400D02*
X55810600Y-55150400D01*
D12*
X61660600Y-51500400D02*
X61660600Y-52500400D01*
X61660600Y-51500400D02*
X61660600Y-51500400D01*
X61660600Y-52500400D02*
X61660600Y-52500400D01*
D13*
X55910600Y-55150400D02*
X55910600Y-55150400D01*
D12*
X57160600Y-51500400D02*
X57160600Y-51500400D01*
X57160600Y-56500400D02*
X61660600Y-56500400D01*
X57160600Y-56500400D02*
X57160600Y-56500400D01*
D13*
X55910600Y-55150400D02*
X55910600Y-55150400D01*
D12*
X61660600Y-56500400D02*
X57160600Y-56500400D01*
X57160600Y-51500400D02*
X61660600Y-51500400D01*
X61660600Y-56500400D02*
X61660600Y-56500400D01*
X61660600Y-56500400D02*
X61660600Y-55500400D01*
X61660600Y-51500400D02*
X61660600Y-51500400D01*
X61660600Y-55500400D02*
X61660600Y-56500400D01*
X61660600Y-56500400D02*
X61660600Y-56500400D01*
X61660600Y-52500400D02*
X61660600Y-51500400D01*
D13*
X55810600Y-55150400D02*
G75*
G03*
X55910600Y-55150400I50000J0D01*
G01*
X55910600Y-55150400D02*
G75*
G03*
X55810600Y-55150400I-50000J0D01*
G01*
X55910600Y-55150400D02*
G75*
G03*
X55810600Y-55150400I-50000J0D01*
G01*
D11*
%TO.C,C1*%
X57734252Y-71547400D02*
X56311748Y-71547400D01*
X57734252Y-69727400D02*
X56311748Y-69727400D01*
D12*
%TO.C,U1*%
X58197000Y-61723400D02*
X58197000Y-58723400D01*
X58197000Y-58723400D02*
X58897000Y-58723400D01*
X56647000Y-58723400D02*
X57847000Y-58723400D01*
X58897000Y-58723400D02*
X58897000Y-61723400D01*
X58897000Y-61723400D02*
X58197000Y-61723400D01*
D11*
%TO.C,J1*%
X54822400Y-59131200D02*
X54822400Y-61731200D01*
X52162400Y-59131200D02*
X54822400Y-59131200D01*
X52162400Y-56531200D02*
X53492400Y-56531200D01*
X52162400Y-59131200D02*
X52162400Y-61731200D01*
X52162400Y-61731200D02*
X54822400Y-61731200D01*
X52162400Y-57861200D02*
X52162400Y-56531200D01*
%TO.C,J3*%
X65354200Y-61523228D02*
X64024200Y-61523228D01*
X66684200Y-53783228D02*
X64024200Y-53783228D01*
X66684200Y-58923228D02*
X64024200Y-58923228D01*
X64024200Y-58923228D02*
X64024200Y-53783228D01*
X64024200Y-61523228D02*
X64024200Y-60193228D01*
X66684200Y-58923228D02*
X66684200Y-53783228D01*
%TO.C,D1*%
X60121600Y-72423400D02*
X56236600Y-72423400D01*
X56236600Y-74693400D02*
X60121600Y-74693400D01*
X56236600Y-72423400D02*
X56236600Y-74693400D01*
%TO.C,R2*%
X62544336Y-72699200D02*
X63998464Y-72699200D01*
X62544336Y-74519200D02*
X63998464Y-74519200D01*
%TO.C,C2*%
X61747452Y-63250400D02*
X60324948Y-63250400D01*
X61747452Y-65070400D02*
X60324948Y-65070400D01*
D12*
%TO.C,U2*%
X59039200Y-65784600D02*
X60239200Y-65784600D01*
X60589200Y-65784600D02*
X61289200Y-65784600D01*
X61289200Y-68784600D02*
X60589200Y-68784600D01*
X60589200Y-68784600D02*
X60589200Y-65784600D01*
X61289200Y-65784600D02*
X61289200Y-68784600D01*
%TD*%
M02*
