%TF.GenerationSoftware,KiCad,Pcbnew,(6.0.8-1)-1*%
%TF.CreationDate,2023-07-28T17:56:40-05:00*%
%TF.ProjectId,FSR Adaptor,46535220-4164-4617-9074-6f722e6b6963,rev?*%
%TF.SameCoordinates,Original*%
%TF.FileFunction,Drillmap*%
%TF.FilePolarity,Positive*%
%FSLAX45Y45*%
G04 Gerber Fmt 4.5, Leading zero omitted, Abs format (unit mm)*
G04 Created by KiCad (PCBNEW (6.0.8-1)-1) date 2023-07-28 17:56:40*
%MOMM*%
%LPD*%
G01*
G04 APERTURE LIST*
%ADD10C,0.100000*%
%ADD11C,0.200000*%
%ADD12C,0.040000*%
%ADD13C,0.220000*%
G04 APERTURE END LIST*
D10*
X5000000Y-5000000D02*
X7050000Y-5000000D01*
X7050000Y-5000000D02*
X7050000Y-7500000D01*
X7050000Y-7500000D02*
X5000000Y-7500000D01*
X5000000Y-7500000D02*
X5000000Y-5000000D01*
D11*
D12*
X5395280Y-6345240D02*
X5435280Y-6385240D01*
X5435280Y-6345240D02*
X5395280Y-6385240D01*
X5540060Y-7231700D02*
X5580060Y-7271700D01*
X5580060Y-7231700D02*
X5540060Y-7271700D01*
X5565460Y-6025200D02*
X5605460Y-6065200D01*
X5605460Y-6025200D02*
X5565460Y-6065200D01*
X5809300Y-6345240D02*
X5849300Y-6385240D01*
X5849300Y-6345240D02*
X5809300Y-6385240D01*
X6070920Y-6695760D02*
X6110920Y-6735760D01*
X6110920Y-6695760D02*
X6070920Y-6735760D01*
X6838000Y-5209860D02*
X6878000Y-5249860D01*
X6878000Y-5209860D02*
X6838000Y-5249860D01*
D10*
X5399240Y-5786120D02*
G75*
G03*
X5399240Y-5786120I-50000J0D01*
G01*
X5399240Y-6040120D02*
G75*
G03*
X5399240Y-6040120I-50000J0D01*
G01*
X6585420Y-5511323D02*
G75*
G03*
X6585420Y-5511323I-50000J0D01*
G01*
X6585420Y-5765323D02*
G75*
G03*
X6585420Y-5765323I-50000J0D01*
G01*
X6585420Y-6019323D02*
G75*
G03*
X6585420Y-6019323I-50000J0D01*
G01*
X6585420Y-6527323D02*
G75*
G03*
X6585420Y-6527323I-50000J0D01*
G01*
X6585420Y-6781323D02*
G75*
G03*
X6585420Y-6781323I-50000J0D01*
G01*
X6585420Y-7035323D02*
G75*
G03*
X6585420Y-7035323I-50000J0D01*
G01*
D13*
X5250000Y-5140000D02*
X5250000Y-5360000D01*
X5140000Y-5250000D02*
X5360000Y-5250000D01*
X5250000Y-7140000D02*
X5250000Y-7360000D01*
X5140000Y-7250000D02*
X5360000Y-7250000D01*
D11*
X5252619Y-7815476D02*
X5252619Y-7615476D01*
X5300238Y-7615476D01*
X5328810Y-7625000D01*
X5347857Y-7644048D01*
X5357381Y-7663095D01*
X5366905Y-7701190D01*
X5366905Y-7729762D01*
X5357381Y-7767857D01*
X5347857Y-7786905D01*
X5328810Y-7805952D01*
X5300238Y-7815476D01*
X5252619Y-7815476D01*
X5452619Y-7815476D02*
X5452619Y-7682143D01*
X5452619Y-7720238D02*
X5462143Y-7701190D01*
X5471667Y-7691667D01*
X5490714Y-7682143D01*
X5509762Y-7682143D01*
X5576429Y-7815476D02*
X5576429Y-7682143D01*
X5576429Y-7615476D02*
X5566905Y-7625000D01*
X5576429Y-7634524D01*
X5585952Y-7625000D01*
X5576429Y-7615476D01*
X5576429Y-7634524D01*
X5700238Y-7815476D02*
X5681190Y-7805952D01*
X5671667Y-7786905D01*
X5671667Y-7615476D01*
X5805000Y-7815476D02*
X5785952Y-7805952D01*
X5776428Y-7786905D01*
X5776428Y-7615476D01*
X6033571Y-7815476D02*
X6033571Y-7615476D01*
X6100238Y-7758333D01*
X6166905Y-7615476D01*
X6166905Y-7815476D01*
X6347857Y-7815476D02*
X6347857Y-7710714D01*
X6338333Y-7691667D01*
X6319286Y-7682143D01*
X6281190Y-7682143D01*
X6262143Y-7691667D01*
X6347857Y-7805952D02*
X6328809Y-7815476D01*
X6281190Y-7815476D01*
X6262143Y-7805952D01*
X6252619Y-7786905D01*
X6252619Y-7767857D01*
X6262143Y-7748809D01*
X6281190Y-7739286D01*
X6328809Y-7739286D01*
X6347857Y-7729762D01*
X6443095Y-7682143D02*
X6443095Y-7882143D01*
X6443095Y-7691667D02*
X6462143Y-7682143D01*
X6500238Y-7682143D01*
X6519286Y-7691667D01*
X6528809Y-7701190D01*
X6538333Y-7720238D01*
X6538333Y-7777381D01*
X6528809Y-7796428D01*
X6519286Y-7805952D01*
X6500238Y-7815476D01*
X6462143Y-7815476D01*
X6443095Y-7805952D01*
X6624048Y-7796428D02*
X6633571Y-7805952D01*
X6624048Y-7815476D01*
X6614524Y-7805952D01*
X6624048Y-7796428D01*
X6624048Y-7815476D01*
X6624048Y-7691667D02*
X6633571Y-7701190D01*
X6624048Y-7710714D01*
X6614524Y-7701190D01*
X6624048Y-7691667D01*
X6624048Y-7710714D01*
D12*
X4955000Y-8125000D02*
X4995000Y-8165000D01*
X4995000Y-8125000D02*
X4955000Y-8165000D01*
D11*
X5290714Y-8035476D02*
X5309762Y-8035476D01*
X5328810Y-8045000D01*
X5338333Y-8054524D01*
X5347857Y-8073571D01*
X5357381Y-8111667D01*
X5357381Y-8159286D01*
X5347857Y-8197381D01*
X5338333Y-8216428D01*
X5328810Y-8225952D01*
X5309762Y-8235476D01*
X5290714Y-8235476D01*
X5271667Y-8225952D01*
X5262143Y-8216428D01*
X5252619Y-8197381D01*
X5243095Y-8159286D01*
X5243095Y-8111667D01*
X5252619Y-8073571D01*
X5262143Y-8054524D01*
X5271667Y-8045000D01*
X5290714Y-8035476D01*
X5443095Y-8216428D02*
X5452619Y-8225952D01*
X5443095Y-8235476D01*
X5433571Y-8225952D01*
X5443095Y-8216428D01*
X5443095Y-8235476D01*
X5624048Y-8102143D02*
X5624048Y-8235476D01*
X5576429Y-8025952D02*
X5528810Y-8168809D01*
X5652619Y-8168809D01*
X5766905Y-8035476D02*
X5785952Y-8035476D01*
X5805000Y-8045000D01*
X5814524Y-8054524D01*
X5824048Y-8073571D01*
X5833571Y-8111667D01*
X5833571Y-8159286D01*
X5824048Y-8197381D01*
X5814524Y-8216428D01*
X5805000Y-8225952D01*
X5785952Y-8235476D01*
X5766905Y-8235476D01*
X5747857Y-8225952D01*
X5738333Y-8216428D01*
X5728809Y-8197381D01*
X5719286Y-8159286D01*
X5719286Y-8111667D01*
X5728809Y-8073571D01*
X5738333Y-8054524D01*
X5747857Y-8045000D01*
X5766905Y-8035476D01*
X5957381Y-8035476D02*
X5976428Y-8035476D01*
X5995476Y-8045000D01*
X6005000Y-8054524D01*
X6014524Y-8073571D01*
X6024048Y-8111667D01*
X6024048Y-8159286D01*
X6014524Y-8197381D01*
X6005000Y-8216428D01*
X5995476Y-8225952D01*
X5976428Y-8235476D01*
X5957381Y-8235476D01*
X5938333Y-8225952D01*
X5928809Y-8216428D01*
X5919286Y-8197381D01*
X5909762Y-8159286D01*
X5909762Y-8111667D01*
X5919286Y-8073571D01*
X5928809Y-8054524D01*
X5938333Y-8045000D01*
X5957381Y-8035476D01*
X6109762Y-8235476D02*
X6109762Y-8102143D01*
X6109762Y-8121190D02*
X6119286Y-8111667D01*
X6138333Y-8102143D01*
X6166905Y-8102143D01*
X6185952Y-8111667D01*
X6195476Y-8130714D01*
X6195476Y-8235476D01*
X6195476Y-8130714D02*
X6205000Y-8111667D01*
X6224048Y-8102143D01*
X6252619Y-8102143D01*
X6271667Y-8111667D01*
X6281190Y-8130714D01*
X6281190Y-8235476D01*
X6376428Y-8235476D02*
X6376428Y-8102143D01*
X6376428Y-8121190D02*
X6385952Y-8111667D01*
X6405000Y-8102143D01*
X6433571Y-8102143D01*
X6452619Y-8111667D01*
X6462143Y-8130714D01*
X6462143Y-8235476D01*
X6462143Y-8130714D02*
X6471667Y-8111667D01*
X6490714Y-8102143D01*
X6519286Y-8102143D01*
X6538333Y-8111667D01*
X6547857Y-8130714D01*
X6547857Y-8235476D01*
X6938333Y-8025952D02*
X6766905Y-8283095D01*
X7195476Y-8035476D02*
X7214524Y-8035476D01*
X7233571Y-8045000D01*
X7243095Y-8054524D01*
X7252619Y-8073571D01*
X7262143Y-8111667D01*
X7262143Y-8159286D01*
X7252619Y-8197381D01*
X7243095Y-8216428D01*
X7233571Y-8225952D01*
X7214524Y-8235476D01*
X7195476Y-8235476D01*
X7176428Y-8225952D01*
X7166905Y-8216428D01*
X7157381Y-8197381D01*
X7147857Y-8159286D01*
X7147857Y-8111667D01*
X7157381Y-8073571D01*
X7166905Y-8054524D01*
X7176428Y-8045000D01*
X7195476Y-8035476D01*
X7347857Y-8216428D02*
X7357381Y-8225952D01*
X7347857Y-8235476D01*
X7338333Y-8225952D01*
X7347857Y-8216428D01*
X7347857Y-8235476D01*
X7481190Y-8035476D02*
X7500238Y-8035476D01*
X7519286Y-8045000D01*
X7528809Y-8054524D01*
X7538333Y-8073571D01*
X7547857Y-8111667D01*
X7547857Y-8159286D01*
X7538333Y-8197381D01*
X7528809Y-8216428D01*
X7519286Y-8225952D01*
X7500238Y-8235476D01*
X7481190Y-8235476D01*
X7462143Y-8225952D01*
X7452619Y-8216428D01*
X7443095Y-8197381D01*
X7433571Y-8159286D01*
X7433571Y-8111667D01*
X7443095Y-8073571D01*
X7452619Y-8054524D01*
X7462143Y-8045000D01*
X7481190Y-8035476D01*
X7738333Y-8235476D02*
X7624048Y-8235476D01*
X7681190Y-8235476D02*
X7681190Y-8035476D01*
X7662143Y-8064048D01*
X7643095Y-8083095D01*
X7624048Y-8092619D01*
X7919286Y-8035476D02*
X7824048Y-8035476D01*
X7814524Y-8130714D01*
X7824048Y-8121190D01*
X7843095Y-8111667D01*
X7890714Y-8111667D01*
X7909762Y-8121190D01*
X7919286Y-8130714D01*
X7928809Y-8149762D01*
X7928809Y-8197381D01*
X7919286Y-8216428D01*
X7909762Y-8225952D01*
X7890714Y-8235476D01*
X7843095Y-8235476D01*
X7824048Y-8225952D01*
X7814524Y-8216428D01*
X7995476Y-8035476D02*
X8128809Y-8035476D01*
X8043095Y-8235476D01*
X8195476Y-8035476D02*
X8195476Y-8073571D01*
X8271667Y-8035476D02*
X8271667Y-8073571D01*
X8566905Y-8311667D02*
X8557381Y-8302143D01*
X8538333Y-8273571D01*
X8528810Y-8254524D01*
X8519286Y-8225952D01*
X8509762Y-8178333D01*
X8509762Y-8140238D01*
X8519286Y-8092619D01*
X8528810Y-8064048D01*
X8538333Y-8045000D01*
X8557381Y-8016428D01*
X8566905Y-8006905D01*
X8728810Y-8035476D02*
X8690714Y-8035476D01*
X8671667Y-8045000D01*
X8662143Y-8054524D01*
X8643095Y-8083095D01*
X8633571Y-8121190D01*
X8633571Y-8197381D01*
X8643095Y-8216428D01*
X8652619Y-8225952D01*
X8671667Y-8235476D01*
X8709762Y-8235476D01*
X8728810Y-8225952D01*
X8738333Y-8216428D01*
X8747857Y-8197381D01*
X8747857Y-8149762D01*
X8738333Y-8130714D01*
X8728810Y-8121190D01*
X8709762Y-8111667D01*
X8671667Y-8111667D01*
X8652619Y-8121190D01*
X8643095Y-8130714D01*
X8633571Y-8149762D01*
X8985952Y-8235476D02*
X8985952Y-8035476D01*
X9071667Y-8235476D02*
X9071667Y-8130714D01*
X9062143Y-8111667D01*
X9043095Y-8102143D01*
X9014524Y-8102143D01*
X8995476Y-8111667D01*
X8985952Y-8121190D01*
X9195476Y-8235476D02*
X9176429Y-8225952D01*
X9166905Y-8216428D01*
X9157381Y-8197381D01*
X9157381Y-8140238D01*
X9166905Y-8121190D01*
X9176429Y-8111667D01*
X9195476Y-8102143D01*
X9224048Y-8102143D01*
X9243095Y-8111667D01*
X9252619Y-8121190D01*
X9262143Y-8140238D01*
X9262143Y-8197381D01*
X9252619Y-8216428D01*
X9243095Y-8225952D01*
X9224048Y-8235476D01*
X9195476Y-8235476D01*
X9376429Y-8235476D02*
X9357381Y-8225952D01*
X9347857Y-8206905D01*
X9347857Y-8035476D01*
X9528810Y-8225952D02*
X9509762Y-8235476D01*
X9471667Y-8235476D01*
X9452619Y-8225952D01*
X9443095Y-8206905D01*
X9443095Y-8130714D01*
X9452619Y-8111667D01*
X9471667Y-8102143D01*
X9509762Y-8102143D01*
X9528810Y-8111667D01*
X9538333Y-8130714D01*
X9538333Y-8149762D01*
X9443095Y-8168809D01*
X9614524Y-8225952D02*
X9633571Y-8235476D01*
X9671667Y-8235476D01*
X9690714Y-8225952D01*
X9700238Y-8206905D01*
X9700238Y-8197381D01*
X9690714Y-8178333D01*
X9671667Y-8168809D01*
X9643095Y-8168809D01*
X9624048Y-8159286D01*
X9614524Y-8140238D01*
X9614524Y-8130714D01*
X9624048Y-8111667D01*
X9643095Y-8102143D01*
X9671667Y-8102143D01*
X9690714Y-8111667D01*
X9766905Y-8311667D02*
X9776429Y-8302143D01*
X9795476Y-8273571D01*
X9805000Y-8254524D01*
X9814524Y-8225952D01*
X9824048Y-8178333D01*
X9824048Y-8140238D01*
X9814524Y-8092619D01*
X9805000Y-8064048D01*
X9795476Y-8045000D01*
X9776429Y-8016428D01*
X9766905Y-8006905D01*
D10*
X4995000Y-8409000D02*
G75*
G03*
X4995000Y-8409000I-50000J0D01*
G01*
D11*
X5357381Y-8499476D02*
X5243095Y-8499476D01*
X5300238Y-8499476D02*
X5300238Y-8299476D01*
X5281190Y-8328048D01*
X5262143Y-8347095D01*
X5243095Y-8356619D01*
X5443095Y-8480429D02*
X5452619Y-8489952D01*
X5443095Y-8499476D01*
X5433571Y-8489952D01*
X5443095Y-8480429D01*
X5443095Y-8499476D01*
X5576429Y-8299476D02*
X5595476Y-8299476D01*
X5614524Y-8309000D01*
X5624048Y-8318524D01*
X5633571Y-8337571D01*
X5643095Y-8375667D01*
X5643095Y-8423286D01*
X5633571Y-8461381D01*
X5624048Y-8480429D01*
X5614524Y-8489952D01*
X5595476Y-8499476D01*
X5576429Y-8499476D01*
X5557381Y-8489952D01*
X5547857Y-8480429D01*
X5538333Y-8461381D01*
X5528810Y-8423286D01*
X5528810Y-8375667D01*
X5538333Y-8337571D01*
X5547857Y-8318524D01*
X5557381Y-8309000D01*
X5576429Y-8299476D01*
X5766905Y-8299476D02*
X5785952Y-8299476D01*
X5805000Y-8309000D01*
X5814524Y-8318524D01*
X5824048Y-8337571D01*
X5833571Y-8375667D01*
X5833571Y-8423286D01*
X5824048Y-8461381D01*
X5814524Y-8480429D01*
X5805000Y-8489952D01*
X5785952Y-8499476D01*
X5766905Y-8499476D01*
X5747857Y-8489952D01*
X5738333Y-8480429D01*
X5728809Y-8461381D01*
X5719286Y-8423286D01*
X5719286Y-8375667D01*
X5728809Y-8337571D01*
X5738333Y-8318524D01*
X5747857Y-8309000D01*
X5766905Y-8299476D01*
X5957381Y-8299476D02*
X5976428Y-8299476D01*
X5995476Y-8309000D01*
X6005000Y-8318524D01*
X6014524Y-8337571D01*
X6024048Y-8375667D01*
X6024048Y-8423286D01*
X6014524Y-8461381D01*
X6005000Y-8480429D01*
X5995476Y-8489952D01*
X5976428Y-8499476D01*
X5957381Y-8499476D01*
X5938333Y-8489952D01*
X5928809Y-8480429D01*
X5919286Y-8461381D01*
X5909762Y-8423286D01*
X5909762Y-8375667D01*
X5919286Y-8337571D01*
X5928809Y-8318524D01*
X5938333Y-8309000D01*
X5957381Y-8299476D01*
X6109762Y-8499476D02*
X6109762Y-8366143D01*
X6109762Y-8385190D02*
X6119286Y-8375667D01*
X6138333Y-8366143D01*
X6166905Y-8366143D01*
X6185952Y-8375667D01*
X6195476Y-8394714D01*
X6195476Y-8499476D01*
X6195476Y-8394714D02*
X6205000Y-8375667D01*
X6224048Y-8366143D01*
X6252619Y-8366143D01*
X6271667Y-8375667D01*
X6281190Y-8394714D01*
X6281190Y-8499476D01*
X6376428Y-8499476D02*
X6376428Y-8366143D01*
X6376428Y-8385190D02*
X6385952Y-8375667D01*
X6405000Y-8366143D01*
X6433571Y-8366143D01*
X6452619Y-8375667D01*
X6462143Y-8394714D01*
X6462143Y-8499476D01*
X6462143Y-8394714D02*
X6471667Y-8375667D01*
X6490714Y-8366143D01*
X6519286Y-8366143D01*
X6538333Y-8375667D01*
X6547857Y-8394714D01*
X6547857Y-8499476D01*
X6938333Y-8289952D02*
X6766905Y-8547095D01*
X7195476Y-8299476D02*
X7214524Y-8299476D01*
X7233571Y-8309000D01*
X7243095Y-8318524D01*
X7252619Y-8337571D01*
X7262143Y-8375667D01*
X7262143Y-8423286D01*
X7252619Y-8461381D01*
X7243095Y-8480429D01*
X7233571Y-8489952D01*
X7214524Y-8499476D01*
X7195476Y-8499476D01*
X7176428Y-8489952D01*
X7166905Y-8480429D01*
X7157381Y-8461381D01*
X7147857Y-8423286D01*
X7147857Y-8375667D01*
X7157381Y-8337571D01*
X7166905Y-8318524D01*
X7176428Y-8309000D01*
X7195476Y-8299476D01*
X7347857Y-8480429D02*
X7357381Y-8489952D01*
X7347857Y-8499476D01*
X7338333Y-8489952D01*
X7347857Y-8480429D01*
X7347857Y-8499476D01*
X7481190Y-8299476D02*
X7500238Y-8299476D01*
X7519286Y-8309000D01*
X7528809Y-8318524D01*
X7538333Y-8337571D01*
X7547857Y-8375667D01*
X7547857Y-8423286D01*
X7538333Y-8461381D01*
X7528809Y-8480429D01*
X7519286Y-8489952D01*
X7500238Y-8499476D01*
X7481190Y-8499476D01*
X7462143Y-8489952D01*
X7452619Y-8480429D01*
X7443095Y-8461381D01*
X7433571Y-8423286D01*
X7433571Y-8375667D01*
X7443095Y-8337571D01*
X7452619Y-8318524D01*
X7462143Y-8309000D01*
X7481190Y-8299476D01*
X7614524Y-8299476D02*
X7738333Y-8299476D01*
X7671667Y-8375667D01*
X7700238Y-8375667D01*
X7719286Y-8385190D01*
X7728809Y-8394714D01*
X7738333Y-8413762D01*
X7738333Y-8461381D01*
X7728809Y-8480429D01*
X7719286Y-8489952D01*
X7700238Y-8499476D01*
X7643095Y-8499476D01*
X7624048Y-8489952D01*
X7614524Y-8480429D01*
X7833571Y-8499476D02*
X7871667Y-8499476D01*
X7890714Y-8489952D01*
X7900238Y-8480429D01*
X7919286Y-8451857D01*
X7928809Y-8413762D01*
X7928809Y-8337571D01*
X7919286Y-8318524D01*
X7909762Y-8309000D01*
X7890714Y-8299476D01*
X7852619Y-8299476D01*
X7833571Y-8309000D01*
X7824048Y-8318524D01*
X7814524Y-8337571D01*
X7814524Y-8385190D01*
X7824048Y-8404238D01*
X7833571Y-8413762D01*
X7852619Y-8423286D01*
X7890714Y-8423286D01*
X7909762Y-8413762D01*
X7919286Y-8404238D01*
X7928809Y-8385190D01*
X8100238Y-8366143D02*
X8100238Y-8499476D01*
X8052619Y-8289952D02*
X8005000Y-8432810D01*
X8128809Y-8432810D01*
X8195476Y-8299476D02*
X8195476Y-8337571D01*
X8271667Y-8299476D02*
X8271667Y-8337571D01*
X8566905Y-8575667D02*
X8557381Y-8566143D01*
X8538333Y-8537571D01*
X8528810Y-8518524D01*
X8519286Y-8489952D01*
X8509762Y-8442333D01*
X8509762Y-8404238D01*
X8519286Y-8356619D01*
X8528810Y-8328048D01*
X8538333Y-8309000D01*
X8557381Y-8280428D01*
X8566905Y-8270905D01*
X8671667Y-8385190D02*
X8652619Y-8375667D01*
X8643095Y-8366143D01*
X8633571Y-8347095D01*
X8633571Y-8337571D01*
X8643095Y-8318524D01*
X8652619Y-8309000D01*
X8671667Y-8299476D01*
X8709762Y-8299476D01*
X8728810Y-8309000D01*
X8738333Y-8318524D01*
X8747857Y-8337571D01*
X8747857Y-8347095D01*
X8738333Y-8366143D01*
X8728810Y-8375667D01*
X8709762Y-8385190D01*
X8671667Y-8385190D01*
X8652619Y-8394714D01*
X8643095Y-8404238D01*
X8633571Y-8423286D01*
X8633571Y-8461381D01*
X8643095Y-8480429D01*
X8652619Y-8489952D01*
X8671667Y-8499476D01*
X8709762Y-8499476D01*
X8728810Y-8489952D01*
X8738333Y-8480429D01*
X8747857Y-8461381D01*
X8747857Y-8423286D01*
X8738333Y-8404238D01*
X8728810Y-8394714D01*
X8709762Y-8385190D01*
X8985952Y-8499476D02*
X8985952Y-8299476D01*
X9071667Y-8499476D02*
X9071667Y-8394714D01*
X9062143Y-8375667D01*
X9043095Y-8366143D01*
X9014524Y-8366143D01*
X8995476Y-8375667D01*
X8985952Y-8385190D01*
X9195476Y-8499476D02*
X9176429Y-8489952D01*
X9166905Y-8480429D01*
X9157381Y-8461381D01*
X9157381Y-8404238D01*
X9166905Y-8385190D01*
X9176429Y-8375667D01*
X9195476Y-8366143D01*
X9224048Y-8366143D01*
X9243095Y-8375667D01*
X9252619Y-8385190D01*
X9262143Y-8404238D01*
X9262143Y-8461381D01*
X9252619Y-8480429D01*
X9243095Y-8489952D01*
X9224048Y-8499476D01*
X9195476Y-8499476D01*
X9376429Y-8499476D02*
X9357381Y-8489952D01*
X9347857Y-8470905D01*
X9347857Y-8299476D01*
X9528810Y-8489952D02*
X9509762Y-8499476D01*
X9471667Y-8499476D01*
X9452619Y-8489952D01*
X9443095Y-8470905D01*
X9443095Y-8394714D01*
X9452619Y-8375667D01*
X9471667Y-8366143D01*
X9509762Y-8366143D01*
X9528810Y-8375667D01*
X9538333Y-8394714D01*
X9538333Y-8413762D01*
X9443095Y-8432810D01*
X9614524Y-8489952D02*
X9633571Y-8499476D01*
X9671667Y-8499476D01*
X9690714Y-8489952D01*
X9700238Y-8470905D01*
X9700238Y-8461381D01*
X9690714Y-8442333D01*
X9671667Y-8432810D01*
X9643095Y-8432810D01*
X9624048Y-8423286D01*
X9614524Y-8404238D01*
X9614524Y-8394714D01*
X9624048Y-8375667D01*
X9643095Y-8366143D01*
X9671667Y-8366143D01*
X9690714Y-8375667D01*
X9766905Y-8575667D02*
X9776429Y-8566143D01*
X9795476Y-8537571D01*
X9805000Y-8518524D01*
X9814524Y-8489952D01*
X9824048Y-8442333D01*
X9824048Y-8404238D01*
X9814524Y-8356619D01*
X9805000Y-8328048D01*
X9795476Y-8309000D01*
X9776429Y-8280428D01*
X9766905Y-8270905D01*
X4895000Y-8573000D02*
X4895000Y-8773000D01*
X4795000Y-8673000D02*
X4995000Y-8673000D01*
X5243095Y-8582524D02*
X5252619Y-8573000D01*
X5271667Y-8563476D01*
X5319286Y-8563476D01*
X5338333Y-8573000D01*
X5347857Y-8582524D01*
X5357381Y-8601571D01*
X5357381Y-8620619D01*
X5347857Y-8649190D01*
X5233571Y-8763476D01*
X5357381Y-8763476D01*
X5443095Y-8744429D02*
X5452619Y-8753952D01*
X5443095Y-8763476D01*
X5433571Y-8753952D01*
X5443095Y-8744429D01*
X5443095Y-8763476D01*
X5528810Y-8582524D02*
X5538333Y-8573000D01*
X5557381Y-8563476D01*
X5605000Y-8563476D01*
X5624048Y-8573000D01*
X5633571Y-8582524D01*
X5643095Y-8601571D01*
X5643095Y-8620619D01*
X5633571Y-8649190D01*
X5519286Y-8763476D01*
X5643095Y-8763476D01*
X5766905Y-8563476D02*
X5785952Y-8563476D01*
X5805000Y-8573000D01*
X5814524Y-8582524D01*
X5824048Y-8601571D01*
X5833571Y-8639667D01*
X5833571Y-8687286D01*
X5824048Y-8725381D01*
X5814524Y-8744429D01*
X5805000Y-8753952D01*
X5785952Y-8763476D01*
X5766905Y-8763476D01*
X5747857Y-8753952D01*
X5738333Y-8744429D01*
X5728809Y-8725381D01*
X5719286Y-8687286D01*
X5719286Y-8639667D01*
X5728809Y-8601571D01*
X5738333Y-8582524D01*
X5747857Y-8573000D01*
X5766905Y-8563476D01*
X5957381Y-8563476D02*
X5976428Y-8563476D01*
X5995476Y-8573000D01*
X6005000Y-8582524D01*
X6014524Y-8601571D01*
X6024048Y-8639667D01*
X6024048Y-8687286D01*
X6014524Y-8725381D01*
X6005000Y-8744429D01*
X5995476Y-8753952D01*
X5976428Y-8763476D01*
X5957381Y-8763476D01*
X5938333Y-8753952D01*
X5928809Y-8744429D01*
X5919286Y-8725381D01*
X5909762Y-8687286D01*
X5909762Y-8639667D01*
X5919286Y-8601571D01*
X5928809Y-8582524D01*
X5938333Y-8573000D01*
X5957381Y-8563476D01*
X6109762Y-8763476D02*
X6109762Y-8630143D01*
X6109762Y-8649190D02*
X6119286Y-8639667D01*
X6138333Y-8630143D01*
X6166905Y-8630143D01*
X6185952Y-8639667D01*
X6195476Y-8658714D01*
X6195476Y-8763476D01*
X6195476Y-8658714D02*
X6205000Y-8639667D01*
X6224048Y-8630143D01*
X6252619Y-8630143D01*
X6271667Y-8639667D01*
X6281190Y-8658714D01*
X6281190Y-8763476D01*
X6376428Y-8763476D02*
X6376428Y-8630143D01*
X6376428Y-8649190D02*
X6385952Y-8639667D01*
X6405000Y-8630143D01*
X6433571Y-8630143D01*
X6452619Y-8639667D01*
X6462143Y-8658714D01*
X6462143Y-8763476D01*
X6462143Y-8658714D02*
X6471667Y-8639667D01*
X6490714Y-8630143D01*
X6519286Y-8630143D01*
X6538333Y-8639667D01*
X6547857Y-8658714D01*
X6547857Y-8763476D01*
X6938333Y-8553952D02*
X6766905Y-8811095D01*
X7195476Y-8563476D02*
X7214524Y-8563476D01*
X7233571Y-8573000D01*
X7243095Y-8582524D01*
X7252619Y-8601571D01*
X7262143Y-8639667D01*
X7262143Y-8687286D01*
X7252619Y-8725381D01*
X7243095Y-8744429D01*
X7233571Y-8753952D01*
X7214524Y-8763476D01*
X7195476Y-8763476D01*
X7176428Y-8753952D01*
X7166905Y-8744429D01*
X7157381Y-8725381D01*
X7147857Y-8687286D01*
X7147857Y-8639667D01*
X7157381Y-8601571D01*
X7166905Y-8582524D01*
X7176428Y-8573000D01*
X7195476Y-8563476D01*
X7347857Y-8744429D02*
X7357381Y-8753952D01*
X7347857Y-8763476D01*
X7338333Y-8753952D01*
X7347857Y-8744429D01*
X7347857Y-8763476D01*
X7481190Y-8563476D02*
X7500238Y-8563476D01*
X7519286Y-8573000D01*
X7528809Y-8582524D01*
X7538333Y-8601571D01*
X7547857Y-8639667D01*
X7547857Y-8687286D01*
X7538333Y-8725381D01*
X7528809Y-8744429D01*
X7519286Y-8753952D01*
X7500238Y-8763476D01*
X7481190Y-8763476D01*
X7462143Y-8753952D01*
X7452619Y-8744429D01*
X7443095Y-8725381D01*
X7433571Y-8687286D01*
X7433571Y-8639667D01*
X7443095Y-8601571D01*
X7452619Y-8582524D01*
X7462143Y-8573000D01*
X7481190Y-8563476D01*
X7662143Y-8649190D02*
X7643095Y-8639667D01*
X7633571Y-8630143D01*
X7624048Y-8611095D01*
X7624048Y-8601571D01*
X7633571Y-8582524D01*
X7643095Y-8573000D01*
X7662143Y-8563476D01*
X7700238Y-8563476D01*
X7719286Y-8573000D01*
X7728809Y-8582524D01*
X7738333Y-8601571D01*
X7738333Y-8611095D01*
X7728809Y-8630143D01*
X7719286Y-8639667D01*
X7700238Y-8649190D01*
X7662143Y-8649190D01*
X7643095Y-8658714D01*
X7633571Y-8668238D01*
X7624048Y-8687286D01*
X7624048Y-8725381D01*
X7633571Y-8744429D01*
X7643095Y-8753952D01*
X7662143Y-8763476D01*
X7700238Y-8763476D01*
X7719286Y-8753952D01*
X7728809Y-8744429D01*
X7738333Y-8725381D01*
X7738333Y-8687286D01*
X7728809Y-8668238D01*
X7719286Y-8658714D01*
X7700238Y-8649190D01*
X7909762Y-8563476D02*
X7871667Y-8563476D01*
X7852619Y-8573000D01*
X7843095Y-8582524D01*
X7824048Y-8611095D01*
X7814524Y-8649190D01*
X7814524Y-8725381D01*
X7824048Y-8744429D01*
X7833571Y-8753952D01*
X7852619Y-8763476D01*
X7890714Y-8763476D01*
X7909762Y-8753952D01*
X7919286Y-8744429D01*
X7928809Y-8725381D01*
X7928809Y-8677762D01*
X7919286Y-8658714D01*
X7909762Y-8649190D01*
X7890714Y-8639667D01*
X7852619Y-8639667D01*
X7833571Y-8649190D01*
X7824048Y-8658714D01*
X7814524Y-8677762D01*
X8100238Y-8563476D02*
X8062143Y-8563476D01*
X8043095Y-8573000D01*
X8033571Y-8582524D01*
X8014524Y-8611095D01*
X8005000Y-8649190D01*
X8005000Y-8725381D01*
X8014524Y-8744429D01*
X8024048Y-8753952D01*
X8043095Y-8763476D01*
X8081190Y-8763476D01*
X8100238Y-8753952D01*
X8109762Y-8744429D01*
X8119286Y-8725381D01*
X8119286Y-8677762D01*
X8109762Y-8658714D01*
X8100238Y-8649190D01*
X8081190Y-8639667D01*
X8043095Y-8639667D01*
X8024048Y-8649190D01*
X8014524Y-8658714D01*
X8005000Y-8677762D01*
X8195476Y-8563476D02*
X8195476Y-8601571D01*
X8271667Y-8563476D02*
X8271667Y-8601571D01*
X8566905Y-8839667D02*
X8557381Y-8830143D01*
X8538333Y-8801571D01*
X8528810Y-8782524D01*
X8519286Y-8753952D01*
X8509762Y-8706333D01*
X8509762Y-8668238D01*
X8519286Y-8620619D01*
X8528810Y-8592048D01*
X8538333Y-8573000D01*
X8557381Y-8544429D01*
X8566905Y-8534905D01*
X8633571Y-8582524D02*
X8643095Y-8573000D01*
X8662143Y-8563476D01*
X8709762Y-8563476D01*
X8728810Y-8573000D01*
X8738333Y-8582524D01*
X8747857Y-8601571D01*
X8747857Y-8620619D01*
X8738333Y-8649190D01*
X8624048Y-8763476D01*
X8747857Y-8763476D01*
X8985952Y-8763476D02*
X8985952Y-8563476D01*
X9071667Y-8763476D02*
X9071667Y-8658714D01*
X9062143Y-8639667D01*
X9043095Y-8630143D01*
X9014524Y-8630143D01*
X8995476Y-8639667D01*
X8985952Y-8649190D01*
X9195476Y-8763476D02*
X9176429Y-8753952D01*
X9166905Y-8744429D01*
X9157381Y-8725381D01*
X9157381Y-8668238D01*
X9166905Y-8649190D01*
X9176429Y-8639667D01*
X9195476Y-8630143D01*
X9224048Y-8630143D01*
X9243095Y-8639667D01*
X9252619Y-8649190D01*
X9262143Y-8668238D01*
X9262143Y-8725381D01*
X9252619Y-8744429D01*
X9243095Y-8753952D01*
X9224048Y-8763476D01*
X9195476Y-8763476D01*
X9376429Y-8763476D02*
X9357381Y-8753952D01*
X9347857Y-8734905D01*
X9347857Y-8563476D01*
X9528810Y-8753952D02*
X9509762Y-8763476D01*
X9471667Y-8763476D01*
X9452619Y-8753952D01*
X9443095Y-8734905D01*
X9443095Y-8658714D01*
X9452619Y-8639667D01*
X9471667Y-8630143D01*
X9509762Y-8630143D01*
X9528810Y-8639667D01*
X9538333Y-8658714D01*
X9538333Y-8677762D01*
X9443095Y-8696810D01*
X9614524Y-8753952D02*
X9633571Y-8763476D01*
X9671667Y-8763476D01*
X9690714Y-8753952D01*
X9700238Y-8734905D01*
X9700238Y-8725381D01*
X9690714Y-8706333D01*
X9671667Y-8696810D01*
X9643095Y-8696810D01*
X9624048Y-8687286D01*
X9614524Y-8668238D01*
X9614524Y-8658714D01*
X9624048Y-8639667D01*
X9643095Y-8630143D01*
X9671667Y-8630143D01*
X9690714Y-8639667D01*
X9766905Y-8839667D02*
X9776429Y-8830143D01*
X9795476Y-8801571D01*
X9805000Y-8782524D01*
X9814524Y-8753952D01*
X9824048Y-8706333D01*
X9824048Y-8668238D01*
X9814524Y-8620619D01*
X9805000Y-8592048D01*
X9795476Y-8573000D01*
X9776429Y-8544429D01*
X9766905Y-8534905D01*
M02*
