%TF.GenerationSoftware,KiCad,Pcbnew,(6.0.8-1)-1*%
%TF.CreationDate,2023-07-28T17:56:29-05:00*%
%TF.ProjectId,FSR Adaptor,46535220-4164-4617-9074-6f722e6b6963,rev?*%
%TF.SameCoordinates,Original*%
%TF.FileFunction,Copper,L2,Bot*%
%TF.FilePolarity,Positive*%
%FSLAX46Y46*%
G04 Gerber Fmt 4.6, Leading zero omitted, Abs format (unit mm)*
G04 Created by KiCad (PCBNEW (6.0.8-1)-1) date 2023-07-28 17:56:29*
%MOMM*%
%LPD*%
G01*
G04 APERTURE LIST*
%TA.AperFunction,ComponentPad*%
%ADD10R,1.700000X1.700000*%
%TD*%
%TA.AperFunction,ComponentPad*%
%ADD11O,1.700000X1.700000*%
%TD*%
%TA.AperFunction,ComponentPad*%
%ADD12C,3.800000*%
%TD*%
%TA.AperFunction,ViaPad*%
%ADD13C,0.800000*%
%TD*%
G04 APERTURE END LIST*
D10*
%TO.P,J2,1,Pin_1*%
%TO.N,/TRIG*%
X65354200Y-70353228D03*
D11*
%TO.P,J2,2,Pin_2*%
%TO.N,VDD*%
X65354200Y-67813228D03*
%TO.P,J2,3,Pin_3*%
%TO.N,GND*%
X65354200Y-65273228D03*
%TD*%
D12*
%TO.P,H2,1,1*%
%TO.N,unconnected-(H2-Pad1)*%
X52500000Y-52500000D03*
%TD*%
%TO.P,H1,1,1*%
%TO.N,unconnected-(H1-Pad1)*%
X52500000Y-72500000D03*
%TD*%
D10*
%TO.P,J1,1,Pin_1*%
%TO.N,VDD*%
X53492400Y-57861200D03*
D11*
%TO.P,J1,2,Pin_2*%
%TO.N,/VIN*%
X53492400Y-60401200D03*
%TD*%
D10*
%TO.P,J3,1,Pin_1*%
%TO.N,/VOUT*%
X65354200Y-60193228D03*
D11*
%TO.P,J3,2,Pin_2*%
%TO.N,VDD*%
X65354200Y-57653228D03*
%TO.P,J3,3,Pin_3*%
%TO.N,GND*%
X65354200Y-55113228D03*
%TD*%
D13*
%TO.N,GND*%
X60909200Y-67157600D03*
X68580000Y-52298600D03*
X55854600Y-60452000D03*
X55600600Y-72517000D03*
X58293000Y-63652400D03*
X54152800Y-63652400D03*
%TD*%
%TA.AperFunction,Conductor*%
%TO.N,GND*%
G36*
X69933621Y-50528502D02*
G01*
X69980114Y-50582158D01*
X69991500Y-50634500D01*
X69991500Y-74365500D01*
X69971498Y-74433621D01*
X69917842Y-74480114D01*
X69865500Y-74491500D01*
X54215892Y-74491500D01*
X54147771Y-74471498D01*
X54101278Y-74417842D01*
X54091174Y-74347568D01*
X54120668Y-74282988D01*
X54129639Y-74273650D01*
X54256305Y-74154703D01*
X54259192Y-74151992D01*
X54452370Y-73918480D01*
X54614758Y-73662598D01*
X54743794Y-73388381D01*
X54837445Y-73100154D01*
X54894233Y-72802462D01*
X54913262Y-72500000D01*
X54894233Y-72197538D01*
X54837445Y-71899846D01*
X54758538Y-71656995D01*
X54745020Y-71615392D01*
X54745020Y-71615391D01*
X54743794Y-71611619D01*
X54614758Y-71337402D01*
X54452370Y-71081520D01*
X54259192Y-70848008D01*
X54038271Y-70640550D01*
X53793090Y-70462416D01*
X53527517Y-70316415D01*
X53523848Y-70314962D01*
X53523843Y-70314960D01*
X53249409Y-70206304D01*
X53249408Y-70206304D01*
X53245739Y-70204851D01*
X52952200Y-70129484D01*
X52651530Y-70091500D01*
X52348470Y-70091500D01*
X52047800Y-70129484D01*
X51754261Y-70204851D01*
X51750592Y-70206304D01*
X51750591Y-70206304D01*
X51476157Y-70314960D01*
X51476152Y-70314962D01*
X51472483Y-70316415D01*
X51206910Y-70462416D01*
X50961729Y-70640550D01*
X50740808Y-70848008D01*
X50738284Y-70851060D01*
X50731586Y-70859156D01*
X50672753Y-70898895D01*
X50601775Y-70900518D01*
X50541187Y-70863510D01*
X50510225Y-70799620D01*
X50508500Y-70778842D01*
X50508500Y-67779923D01*
X63991451Y-67779923D01*
X63991748Y-67785076D01*
X63991748Y-67785079D01*
X63997211Y-67879818D01*
X64004310Y-68002943D01*
X64005447Y-68007989D01*
X64005448Y-68007995D01*
X64025319Y-68096167D01*
X64053422Y-68220867D01*
X64137466Y-68427844D01*
X64254187Y-68618316D01*
X64400450Y-68787166D01*
X64404430Y-68790470D01*
X64409181Y-68794415D01*
X64448816Y-68853318D01*
X64450313Y-68924299D01*
X64413197Y-68984821D01*
X64372924Y-69009340D01*
X64257495Y-69052613D01*
X64140939Y-69139967D01*
X64053585Y-69256523D01*
X64002455Y-69392912D01*
X63995700Y-69455094D01*
X63995700Y-71251362D01*
X64002455Y-71313544D01*
X64053585Y-71449933D01*
X64140939Y-71566489D01*
X64257495Y-71653843D01*
X64393884Y-71704973D01*
X64456066Y-71711728D01*
X66252334Y-71711728D01*
X66314516Y-71704973D01*
X66450905Y-71653843D01*
X66567461Y-71566489D01*
X66654815Y-71449933D01*
X66705945Y-71313544D01*
X66712700Y-71251362D01*
X66712700Y-69455094D01*
X66705945Y-69392912D01*
X66654815Y-69256523D01*
X66567461Y-69139967D01*
X66450905Y-69052613D01*
X66438332Y-69047900D01*
X66332403Y-69008188D01*
X66275639Y-68965546D01*
X66250939Y-68898984D01*
X66266147Y-68829636D01*
X66287693Y-68800955D01*
X66388635Y-68700365D01*
X66392296Y-68696717D01*
X66451794Y-68613917D01*
X66519635Y-68519505D01*
X66522653Y-68515305D01*
X66621630Y-68315039D01*
X66686570Y-68101297D01*
X66715729Y-67879818D01*
X66717356Y-67813228D01*
X66699052Y-67590589D01*
X66644631Y-67373930D01*
X66555554Y-67169068D01*
X66434214Y-66981505D01*
X66283870Y-66816279D01*
X66279819Y-66813080D01*
X66279815Y-66813076D01*
X66112614Y-66681028D01*
X66112610Y-66681026D01*
X66108559Y-66677826D01*
X66066769Y-66654757D01*
X66016798Y-66604325D01*
X66002026Y-66534882D01*
X66027142Y-66468476D01*
X66054494Y-66441869D01*
X66229528Y-66317020D01*
X66237400Y-66310367D01*
X66388252Y-66160040D01*
X66394930Y-66152193D01*
X66519203Y-65979248D01*
X66524513Y-65970411D01*
X66618870Y-65779495D01*
X66622669Y-65769900D01*
X66684577Y-65566138D01*
X66686755Y-65556065D01*
X66688186Y-65545190D01*
X66685975Y-65531006D01*
X66672817Y-65527228D01*
X64037425Y-65527228D01*
X64023894Y-65531201D01*
X64022457Y-65541194D01*
X64052765Y-65675674D01*
X64055845Y-65685503D01*
X64135970Y-65882831D01*
X64140613Y-65892022D01*
X64251894Y-66073616D01*
X64257977Y-66081927D01*
X64397413Y-66242895D01*
X64404780Y-66250111D01*
X64568634Y-66386144D01*
X64577081Y-66392059D01*
X64646169Y-66432431D01*
X64694893Y-66484070D01*
X64707964Y-66553853D01*
X64681233Y-66619624D01*
X64640784Y-66652980D01*
X64627807Y-66659735D01*
X64623674Y-66662838D01*
X64623671Y-66662840D01*
X64599447Y-66681028D01*
X64449165Y-66793863D01*
X64294829Y-66955366D01*
X64168943Y-67139908D01*
X64074888Y-67342533D01*
X64015189Y-67557798D01*
X63991451Y-67779923D01*
X50508500Y-67779923D01*
X50508500Y-65007411D01*
X64018589Y-65007411D01*
X64020112Y-65015835D01*
X64032492Y-65019228D01*
X65082085Y-65019228D01*
X65097324Y-65014753D01*
X65098529Y-65013363D01*
X65100200Y-65005680D01*
X65100200Y-65001113D01*
X65608200Y-65001113D01*
X65612675Y-65016352D01*
X65614065Y-65017557D01*
X65621748Y-65019228D01*
X66672544Y-65019228D01*
X66686075Y-65015255D01*
X66687380Y-65006175D01*
X66645414Y-64839103D01*
X66642094Y-64829352D01*
X66557172Y-64634042D01*
X66552305Y-64624967D01*
X66436626Y-64446154D01*
X66430336Y-64437985D01*
X66287006Y-64280468D01*
X66279473Y-64273443D01*
X66112339Y-64141450D01*
X66103752Y-64135745D01*
X65917317Y-64032827D01*
X65907905Y-64028597D01*
X65707159Y-63957508D01*
X65697188Y-63954874D01*
X65626037Y-63942200D01*
X65612740Y-63943660D01*
X65608200Y-63958217D01*
X65608200Y-65001113D01*
X65100200Y-65001113D01*
X65100200Y-63956330D01*
X65096282Y-63942986D01*
X65082006Y-63940999D01*
X65043524Y-63946888D01*
X65033488Y-63949279D01*
X64831068Y-64015440D01*
X64821559Y-64019437D01*
X64632663Y-64117770D01*
X64623938Y-64123264D01*
X64453633Y-64251133D01*
X64445926Y-64257976D01*
X64298790Y-64411945D01*
X64292304Y-64419955D01*
X64172298Y-64595877D01*
X64167200Y-64604851D01*
X64077538Y-64798011D01*
X64073975Y-64807698D01*
X64018589Y-65007411D01*
X50508500Y-65007411D01*
X50508500Y-60367895D01*
X52129651Y-60367895D01*
X52129948Y-60373048D01*
X52129948Y-60373051D01*
X52135411Y-60467790D01*
X52142510Y-60590915D01*
X52143647Y-60595961D01*
X52143648Y-60595967D01*
X52163519Y-60684139D01*
X52191622Y-60808839D01*
X52275666Y-61015816D01*
X52324042Y-61094759D01*
X52364600Y-61160943D01*
X52392387Y-61206288D01*
X52538650Y-61375138D01*
X52710526Y-61517832D01*
X52903400Y-61630538D01*
X53112092Y-61710230D01*
X53117160Y-61711261D01*
X53117163Y-61711262D01*
X53224417Y-61733083D01*
X53330997Y-61754767D01*
X53336172Y-61754957D01*
X53336174Y-61754957D01*
X53549073Y-61762764D01*
X53549077Y-61762764D01*
X53554237Y-61762953D01*
X53559357Y-61762297D01*
X53559359Y-61762297D01*
X53770688Y-61735225D01*
X53770689Y-61735225D01*
X53775816Y-61734568D01*
X53780766Y-61733083D01*
X53984829Y-61671861D01*
X53984834Y-61671859D01*
X53989784Y-61670374D01*
X54190394Y-61572096D01*
X54372260Y-61442373D01*
X54530496Y-61284689D01*
X54589994Y-61201889D01*
X54657835Y-61107477D01*
X54660853Y-61103277D01*
X54668431Y-61087945D01*
X54757536Y-60907653D01*
X54757537Y-60907651D01*
X54759830Y-60903011D01*
X54824770Y-60689269D01*
X54853929Y-60467790D01*
X54855556Y-60401200D01*
X54837252Y-60178561D01*
X54782831Y-59961902D01*
X54693754Y-59757040D01*
X54572414Y-59569477D01*
X54568932Y-59565650D01*
X54425198Y-59407688D01*
X54394146Y-59343842D01*
X54402541Y-59273343D01*
X54447717Y-59218575D01*
X54474161Y-59204906D01*
X54580697Y-59164967D01*
X54589105Y-59161815D01*
X54705661Y-59074461D01*
X54793015Y-58957905D01*
X54844145Y-58821516D01*
X54850900Y-58759334D01*
X54850900Y-57619923D01*
X63991451Y-57619923D01*
X63991748Y-57625076D01*
X63991748Y-57625079D01*
X63997211Y-57719818D01*
X64004310Y-57842943D01*
X64005447Y-57847989D01*
X64005448Y-57847995D01*
X64025319Y-57936167D01*
X64053422Y-58060867D01*
X64137466Y-58267844D01*
X64254187Y-58458316D01*
X64400450Y-58627166D01*
X64404430Y-58630470D01*
X64409181Y-58634415D01*
X64448816Y-58693318D01*
X64450313Y-58764299D01*
X64413197Y-58824821D01*
X64372924Y-58849340D01*
X64257495Y-58892613D01*
X64140939Y-58979967D01*
X64053585Y-59096523D01*
X64002455Y-59232912D01*
X63995700Y-59295094D01*
X63995700Y-61091362D01*
X64002455Y-61153544D01*
X64053585Y-61289933D01*
X64140939Y-61406489D01*
X64257495Y-61493843D01*
X64393884Y-61544973D01*
X64456066Y-61551728D01*
X66252334Y-61551728D01*
X66314516Y-61544973D01*
X66450905Y-61493843D01*
X66567461Y-61406489D01*
X66654815Y-61289933D01*
X66705945Y-61153544D01*
X66712700Y-61091362D01*
X66712700Y-59295094D01*
X66705945Y-59232912D01*
X66654815Y-59096523D01*
X66567461Y-58979967D01*
X66450905Y-58892613D01*
X66438332Y-58887900D01*
X66332403Y-58848188D01*
X66275639Y-58805546D01*
X66250939Y-58738984D01*
X66266147Y-58669636D01*
X66287693Y-58640955D01*
X66388635Y-58540365D01*
X66392296Y-58536717D01*
X66451794Y-58453917D01*
X66519635Y-58359505D01*
X66522653Y-58355305D01*
X66621630Y-58155039D01*
X66686570Y-57941297D01*
X66715729Y-57719818D01*
X66717356Y-57653228D01*
X66699052Y-57430589D01*
X66644631Y-57213930D01*
X66555554Y-57009068D01*
X66434214Y-56821505D01*
X66283870Y-56656279D01*
X66279819Y-56653080D01*
X66279815Y-56653076D01*
X66112614Y-56521028D01*
X66112610Y-56521026D01*
X66108559Y-56517826D01*
X66066769Y-56494757D01*
X66016798Y-56444325D01*
X66002026Y-56374882D01*
X66027142Y-56308476D01*
X66054494Y-56281869D01*
X66229528Y-56157020D01*
X66237400Y-56150367D01*
X66388252Y-56000040D01*
X66394930Y-55992193D01*
X66519203Y-55819248D01*
X66524513Y-55810411D01*
X66618870Y-55619495D01*
X66622669Y-55609900D01*
X66684577Y-55406138D01*
X66686755Y-55396065D01*
X66688186Y-55385190D01*
X66685975Y-55371006D01*
X66672817Y-55367228D01*
X64037425Y-55367228D01*
X64023894Y-55371201D01*
X64022457Y-55381194D01*
X64052765Y-55515674D01*
X64055845Y-55525503D01*
X64135970Y-55722831D01*
X64140613Y-55732022D01*
X64251894Y-55913616D01*
X64257977Y-55921927D01*
X64397413Y-56082895D01*
X64404780Y-56090111D01*
X64568634Y-56226144D01*
X64577081Y-56232059D01*
X64646169Y-56272431D01*
X64694893Y-56324070D01*
X64707964Y-56393853D01*
X64681233Y-56459624D01*
X64640784Y-56492980D01*
X64627807Y-56499735D01*
X64623674Y-56502838D01*
X64623671Y-56502840D01*
X64453300Y-56630758D01*
X64449165Y-56633863D01*
X64294829Y-56795366D01*
X64291915Y-56799638D01*
X64291914Y-56799639D01*
X64206756Y-56924477D01*
X64168943Y-56979908D01*
X64074888Y-57182533D01*
X64015189Y-57397798D01*
X63991451Y-57619923D01*
X54850900Y-57619923D01*
X54850900Y-56963066D01*
X54844145Y-56900884D01*
X54793015Y-56764495D01*
X54705661Y-56647939D01*
X54589105Y-56560585D01*
X54452716Y-56509455D01*
X54390534Y-56502700D01*
X52594266Y-56502700D01*
X52532084Y-56509455D01*
X52395695Y-56560585D01*
X52279139Y-56647939D01*
X52191785Y-56764495D01*
X52140655Y-56900884D01*
X52133900Y-56963066D01*
X52133900Y-58759334D01*
X52140655Y-58821516D01*
X52191785Y-58957905D01*
X52279139Y-59074461D01*
X52395695Y-59161815D01*
X52404104Y-59164967D01*
X52404105Y-59164968D01*
X52512851Y-59205735D01*
X52569616Y-59248376D01*
X52594316Y-59314938D01*
X52579109Y-59384287D01*
X52559716Y-59410768D01*
X52433029Y-59543338D01*
X52307143Y-59727880D01*
X52213088Y-59930505D01*
X52153389Y-60145770D01*
X52129651Y-60367895D01*
X50508500Y-60367895D01*
X50508500Y-54221158D01*
X50528502Y-54153037D01*
X50582158Y-54106544D01*
X50652432Y-54096440D01*
X50717012Y-54125934D01*
X50731583Y-54140841D01*
X50740808Y-54151992D01*
X50961729Y-54359450D01*
X51206910Y-54537584D01*
X51210379Y-54539491D01*
X51210382Y-54539493D01*
X51407205Y-54647698D01*
X51472483Y-54683585D01*
X51476152Y-54685038D01*
X51476157Y-54685040D01*
X51750591Y-54793696D01*
X51754261Y-54795149D01*
X52047800Y-54870516D01*
X52348470Y-54908500D01*
X52651530Y-54908500D01*
X52952200Y-54870516D01*
X53042189Y-54847411D01*
X64018589Y-54847411D01*
X64020112Y-54855835D01*
X64032492Y-54859228D01*
X65082085Y-54859228D01*
X65097324Y-54854753D01*
X65098529Y-54853363D01*
X65100200Y-54845680D01*
X65100200Y-54841113D01*
X65608200Y-54841113D01*
X65612675Y-54856352D01*
X65614065Y-54857557D01*
X65621748Y-54859228D01*
X66672544Y-54859228D01*
X66686075Y-54855255D01*
X66687380Y-54846175D01*
X66645414Y-54679103D01*
X66642094Y-54669352D01*
X66557172Y-54474042D01*
X66552305Y-54464967D01*
X66436626Y-54286154D01*
X66430336Y-54277985D01*
X66287006Y-54120468D01*
X66279473Y-54113443D01*
X66112339Y-53981450D01*
X66103752Y-53975745D01*
X65917317Y-53872827D01*
X65907905Y-53868597D01*
X65707159Y-53797508D01*
X65697188Y-53794874D01*
X65626037Y-53782200D01*
X65612740Y-53783660D01*
X65608200Y-53798217D01*
X65608200Y-54841113D01*
X65100200Y-54841113D01*
X65100200Y-53796330D01*
X65096282Y-53782986D01*
X65082006Y-53780999D01*
X65043524Y-53786888D01*
X65033488Y-53789279D01*
X64831068Y-53855440D01*
X64821559Y-53859437D01*
X64632663Y-53957770D01*
X64623938Y-53963264D01*
X64453633Y-54091133D01*
X64445926Y-54097976D01*
X64298790Y-54251945D01*
X64292304Y-54259955D01*
X64172298Y-54435877D01*
X64167200Y-54444851D01*
X64077538Y-54638011D01*
X64073975Y-54647698D01*
X64018589Y-54847411D01*
X53042189Y-54847411D01*
X53245739Y-54795149D01*
X53249409Y-54793696D01*
X53523843Y-54685040D01*
X53523848Y-54685038D01*
X53527517Y-54683585D01*
X53592795Y-54647698D01*
X53789618Y-54539493D01*
X53789621Y-54539491D01*
X53793090Y-54537584D01*
X54038271Y-54359450D01*
X54259192Y-54151992D01*
X54404996Y-53975745D01*
X54449848Y-53921529D01*
X54449851Y-53921525D01*
X54452370Y-53918480D01*
X54614758Y-53662598D01*
X54743794Y-53388381D01*
X54837445Y-53100154D01*
X54894233Y-52802462D01*
X54913262Y-52500000D01*
X54894233Y-52197538D01*
X54837445Y-51899846D01*
X54743794Y-51611619D01*
X54614758Y-51337402D01*
X54452370Y-51081520D01*
X54259192Y-50848008D01*
X54129639Y-50726350D01*
X54093674Y-50665138D01*
X54096511Y-50594198D01*
X54137252Y-50536053D01*
X54202960Y-50509165D01*
X54215892Y-50508500D01*
X69865500Y-50508500D01*
X69933621Y-50528502D01*
G37*
%TD.AperFunction*%
%TD*%
M02*
